<svg xmlns="http://www.w3.org/2000/svg" width="124" height="21" viewBox="0 0 124 21">
    <g fill="none" fill-rule="evenodd">
        <path fill="#FFF" d="M70.124 9.602c.778.216 1.38.612 1.808 1.185.427.574.64 1.275.64 2.104 0 1.148-.41 2.047-1.233 2.697-.823.65-1.954.975-3.395.975h-6.12V3.08h5.929c1.402 0 2.502.31 3.299.928.797.618 1.195 1.482 1.195 2.591 0 .714-.188 1.332-.564 1.855-.376.523-.896.905-1.559 1.148zm-5.89-.842h3.117c1.696 0 2.544-.63 2.544-1.893 0-.638-.21-1.11-.631-1.415-.421-.306-1.059-.46-1.913-.46h-3.117V8.76zm3.442 5.89c.893 0 1.543-.159 1.951-.477.408-.32.612-.816.612-1.492s-.207-1.18-.621-1.511c-.415-.332-1.062-.497-1.942-.497h-3.442v3.978h3.442zm11.265 2.066c-.956 0-1.795-.197-2.515-.593a4.102 4.102 0 0 1-1.673-1.702c-.396-.74-.593-1.6-.593-2.582 0-.981.197-1.839.593-2.572a4.116 4.116 0 0 1 1.673-1.693c.72-.395 1.559-.592 2.515-.592.956 0 1.795.197 2.515.592.72.396 1.275.96 1.664 1.693.389.733.583 1.59.583 2.572s-.194 1.843-.583 2.582a4.043 4.043 0 0 1-1.664 1.702c-.72.396-1.559.593-2.515.593zm-.02-1.855c.779 0 1.372-.255 1.78-.765.408-.51.612-1.262.612-2.257 0-.981-.204-1.73-.612-2.247-.408-.516-.995-.774-1.76-.774s-1.355.258-1.769.774c-.414.517-.622 1.266-.622 2.247 0 .995.204 1.747.612 2.257.408.51.995.765 1.76.765zm15.856-7.65v8.492c0 1.466-.405 2.575-1.215 3.327-.81.753-2.005 1.129-3.586 1.129-.816 0-1.6-.105-2.352-.316a6.646 6.646 0 0 1-1.97-.89l.67-1.682c1.16.701 2.358 1.052 3.595 1.052 1.657 0 2.486-.816 2.486-2.448V14.65a2.92 2.92 0 0 1-1.224 1.214c-.535.287-1.147.43-1.836.43-.816 0-1.54-.194-2.17-.583a4.009 4.009 0 0 1-1.483-1.635c-.357-.701-.535-1.51-.535-2.429 0-.918.175-1.73.526-2.438a3.91 3.91 0 0 1 1.482-1.645c.637-.389 1.364-.583 2.18-.583.689 0 1.3.143 1.836.43a2.92 2.92 0 0 1 1.224 1.214V7.211h2.372zm-4.8 7.23c.764 0 1.36-.25 1.787-.747.428-.497.641-1.179.641-2.046 0-.88-.213-1.568-.64-2.065-.428-.498-1.024-.746-1.789-.746-.752 0-1.345.248-1.778.746-.434.497-.65 1.185-.65 2.065 0 .854.216 1.533.65 2.037.433.504 1.026.755 1.778.755zm13.827-7.21h2.352l-5.623 12.775h-2.41l1.703-3.806-3.902-8.97h2.525l2.639 6.598 2.716-6.598zm9.276 9.504c-1.85 0-3.252-.478-4.208-1.434-.956-.956-1.434-2.352-1.434-4.188V3.08h2.41v8.166c0 1.16.273 2.037.822 2.63.548.593 1.351.89 2.41.89 1.045 0 1.842-.3 2.39-.9.548-.599.823-1.472.823-2.62V3.08h2.41v8.033c0 1.823-.479 3.216-1.435 4.178-.956.963-2.352 1.444-4.188 1.444zm8.453-.172V3.08H124v13.483h-2.467z"/>
        <g fill-rule="nonzero">
            <rect width="52" height="21" fill="#44519E" rx="5"/>
            <path fill="#B3B4E8" d="M5 0h12v21H5z"/>
            <path fill="#D1E6FA" d="M17 0h11v21H17z"/>
            <path fill="#54C5EB" d="M0 0h6v21H0z"/>
        </g>
    </g>
</svg>
